<svg width="221" height="78" viewBox="0 0 221 78" fill="none" xmlns="http://www.w3.org/2000/svg">
<path d="M30.4223 37.232H52.3103V44.272H0.34225V37.232H22.3583V30.384H15.8303C14.2089 30.384 13.0996 30.0853 12.5023 29.488C11.9049 28.8907 11.6063 27.824 11.6063 26.288V12.208H32.8543V7.216H11.6063V0.303997H36.6943C38.3583 0.303997 39.4676 0.581331 40.0223 1.136C40.6196 1.69066 40.9183 2.75733 40.9183 4.336V18.224H19.6703V23.344H41.5583V30.384H30.4223V37.232ZM106.491 30.832C106.491 32.9227 106.875 34.48 107.643 35.504C108.411 36.528 109.584 37.104 111.163 37.232V44.272H110.971C106.96 44.272 103.867 43.1627 101.691 40.944C99.5148 38.7253 98.4268 35.5467 98.4268 31.408V25.84H87.1628V18.8H98.4268V3.568H106.491V30.832ZM84.0268 25.84C84.0268 38.128 76.4534 44.272 61.3068 44.272H52.1547V37.232H61.3068C65.1894 37.232 68.2401 36.784 70.4588 35.888C72.6774 34.9493 74.2134 33.4987 75.0668 31.536H59.5148V25.136H75.8988V20.208H59.0668V13.168H84.0268V25.84ZM86.2668 65.968V70.96H107.387V78H82.2988C79.5681 78 78.2028 76.656 78.2028 73.968V59.952H98.1068V55.088H78.2028V48.176H102.075C103.483 48.176 104.507 48.4747 105.147 49.072C105.829 49.6267 106.171 50.544 106.171 51.824V65.968H86.2668ZM125.558 32.368C124.022 32.368 122.934 32.0907 122.294 31.536C121.696 30.9387 121.398 29.8933 121.398 28.4V6.32H129.462V12.592H142.134V18.992H129.462V25.328H144.502V6.32H152.566V32.368H125.558ZM111.03 37.232H162.998V44.272H140.982V59.44H132.918V44.272H111.03V37.232ZM220.826 23.408H211.482V30.832C211.482 32.9653 211.909 34.544 212.762 35.568C213.658 36.5493 215.109 37.104 217.114 37.232H218.65V44.272H216.922C212.442 44.272 209.072 43.184 206.81 41.008C204.549 38.7893 203.418 35.5893 203.418 31.408V3.568H211.482V16.368H220.826V23.408ZM198.746 44.016C194.949 44.016 191.429 43.12 188.186 41.328C184.986 39.536 182.661 37.2107 181.21 34.352C179.802 37.3387 177.413 39.7493 174.042 41.584C170.672 43.376 166.938 44.272 162.842 44.272V37.232C165.658 37.232 168.133 36.6133 170.266 35.376C172.442 34.1387 174.106 32.432 175.258 30.256C176.453 28.0373 177.05 25.4987 177.05 22.64V15.024H185.114V22.64C185.114 25.456 185.669 27.952 186.778 30.128C187.93 32.304 189.53 34.0107 191.578 35.248C193.669 36.4427 196.058 37.04 198.746 37.04V44.016ZM190.17 47.984V62.832H211.61V69.872H186.33C185.008 69.872 183.962 69.5307 183.194 68.848C182.469 68.208 182.106 67.248 182.106 65.968V47.984H190.17Z" fill="black"/>
</svg>
